<?xml version="1.0" encoding="UTF-8" standalone="no"?>
<svg
   xmlns:dc="http://purl.org/dc/elements/1.1/"
   xmlns:cc="http://creativecommons.org/ns#"
   xmlns:rdf="http://www.w3.org/1999/02/22-rdf-syntax-ns#"
   xmlns:svg="http://www.w3.org/2000/svg"
   xmlns="http://www.w3.org/2000/svg"
   xmlns:sodipodi="http://sodipodi.sourceforge.net/DTD/sodipodi-0.dtd"
   xmlns:inkscape="http://www.inkscape.org/namespaces/inkscape"
   id="Layer_1"
   data-name="Layer 1"
   viewBox="0 0 1359.8538 214.48001"
   version="1.1"
   sodipodi:docname="logo.svg"
   inkscape:version="1.0 (4035a4fb49, 2020-05-01)"
   width="1359.8538"
   height="214.48001">
  <metadata
     id="metadata3808">
    <rdf:RDF>
      <cc:Work
         rdf:about="">
        <dc:format>image/svg+xml</dc:format>
        <dc:type
           rdf:resource="http://purl.org/dc/dcmitype/StillImage" />
        <dc:title>Specter Logo Regular</dc:title>
      </cc:Work>
    </rdf:RDF>
  </metadata>
  <sodipodi:namedview
     pagecolor="#ffffff"
     bordercolor="#666666"
     borderopacity="1"
     objecttolerance="10"
     gridtolerance="10"
     guidetolerance="10"
     inkscape:pageopacity="0"
     inkscape:pageshadow="2"
     inkscape:window-width="1920"
     inkscape:window-height="1017"
     id="namedview3806"
     showgrid="false"
     inkscape:zoom="0.35355339"
     inkscape:cx="1801.4598"
     inkscape:cy="276.18969"
     inkscape:window-x="1912"
     inkscape:window-y="-8"
     inkscape:window-maximized="1"
     inkscape:current-layer="Layer_1"
     inkscape:document-rotation="0"
     fit-margin-top="20"
     fit-margin-left="20"
     fit-margin-right="20"
     fit-margin-bottom="20" />
  <defs
     id="defs3775">
    <style
       id="style3773">.cls-1,.cls-4{fill:#fff;}.cls-1,.cls-2,.cls-4,.cls-5{stroke:#231f20;stroke-miterlimit:10;}.cls-1{stroke-width:5px;}.cls-2,.cls-3{fill:#231f20;}.cls-2{stroke-width:3px;}.cls-4,.cls-5{stroke-width:4px;}.cls-5{fill:none;}</style>
  </defs>
  <title
     id="title3777">Specter Logo Regular</title>
  <g
     transform="translate(-322.74961,-27.939236)"
     aria-label="OPEN SOURCE"
     id="text27"
     style="font-weight:300;font-size:240px;line-height:1.25;font-family:'Advent Pro';-inkscape-font-specification:'Advent Pro Light';fill:#ffffff">
    <path
       d="M 342.74961,175.37924 V 98.099236 q 0,-24.72 13.44,-37.44 13.68,-12.72 37.44,-12.72 23.76,0 36.72,13.44 13.2,13.44 13.2,36.96 v 77.040004 q 0,24.24 -14.88,35.76 -14.64,11.28 -35.28,11.28 -20.64,0 -35.76,-11.28 -14.88,-11.52 -14.88,-35.76 z m 10.8,-78.960004 v 78.960004 q 0,18.24 11.28,27.6 11.52,9.12 28.56,9.12 17.04,0 28.32,-8.88 11.28,-9.12 11.28,-28.08 V 96.419236 q 0,-18.48 -10.8,-28.32 -10.56,-9.84 -29.04,-9.84 -18.48,0 -29.04,9.84 -10.56,9.84 -10.56,28.32 z"
       id="path29" />
    <path
       d="m 486.05586,62.099236 v 85.680004 h 48.48 q 9.6,0 16.32,-3.36 6.72,-3.6 10.08,-7.92 3.36,-4.56 5.28,-11.52 2.4,-8.64 2.4,-21.84 0,-19.920004 -8.64,-30.480004 -8.64,-10.56 -24.96,-10.56 z m -10.8,-10.32 h 59.04 q 22.8,0 33.84,13.92 11.28,13.92 11.28,37.440004 0,29.28 -10.8,42.24 -4.56,5.28 -13.44,9.12 -8.64,3.84 -20.64,3.84 h -48.48 v 61.44 h -10.8 z"
       id="path31" />
    <path
       d="m 606.50586,51.779236 h 80.16 v 10.08 h -69.36 v 58.800004 h 48.48 l -3.6,10.56 h -44.88 v 78.72 h 68.88 v 9.84 h -79.68 z"
       id="path33" />
    <path
       d="m 718.06836,51.779236 h 10.8 l 96.72,148.320004 V 51.779236 h 10.56 V 219.77924 h -10.56 l -96.72,-148.560004 V 219.77924 h -10.8 z"
       id="path35" />
    <path
       d="m 930.88461,177.05924 h 11.04 q 0.96,13.44 13.2,24.24 12.24,10.8 32.16,10.8 19.91999,0 32.87999,-8.88 13.2,-8.88 13.2,-28.32 0,-11.28 -7.44,-19.2 -7.2,-8.16 -18,-12.24 -10.79999,-4.08 -23.75999,-8.64 -12.72,-4.8 -23.52,-9.36 -10.8,-4.56 -18.24,-13.44 -7.2,-8.88 -7.2,-21.360004 0,-16.8 13.92,-29.04 13.92,-12.24 40.08,-12.24 19.91999,0 35.03999,7.2 l -3.36,10.32 q -13.68,-6.96 -32.15999,-6.96 -18.24,0 -30.24,8.16 -12,8.16 -12,23.28 0,9.600004 7.2,16.800004 7.44,6.96 18.24,10.8 11.04,3.6 23.76,8.4 12.71999,4.56 23.51999,9.6 11.04,4.8 18.24,14.4 7.44,9.6 7.44,22.8 0,22.08 -14.16,35.28 -13.92,12.96 -41.75999,12.96 -27.6,0 -42.72,-13.68 -14.88,-13.92 -15.36,-31.68 z"
       id="path37" />
    <path
       d="M 1071.6559,175.37924 V 98.099236 q 0,-24.72 13.44,-37.44 13.68,-12.72 37.44,-12.72 23.76,0 36.72,13.44 13.2,13.44 13.2,36.96 v 77.040004 q 0,24.24 -14.88,35.76 -14.64,11.28 -35.28,11.28 -20.64,0 -35.76,-11.28 -14.88,-11.52 -14.88,-35.76 z m 10.8,-78.960004 v 78.960004 q 0,18.24 11.28,27.6 11.52,9.12 28.56,9.12 17.04,0 28.32,-8.88 11.28,-9.12 11.28,-28.08 V 96.419236 q 0,-18.48 -10.8,-28.32 -10.56,-9.84 -29.04,-9.84 -18.48,0 -29.04,9.84 -10.56,9.84 -10.56,28.32 z"
       id="path39" />
    <path
       d="m 1206.0146,51.539236 h 10.8 V 176.57924 q 0,16.8 11.76,25.92 11.76,9.12 28.08,9.12 16.32,0 27.84,-9.12 11.76,-9.12 11.76,-25.92 V 51.539236 h 10.8 V 175.13924 q 0,12.72 -4.56,22.08 -4.32,9.36 -12,14.4 -7.44,5.04 -15.84,7.44 -8.4,2.4 -18,2.4 -9.6,0 -18.24,-2.4 -8.4,-2.4 -16.08,-7.44 -7.44,-5.04 -12,-14.4 -4.32,-9.36 -4.32,-22.08 z"
       id="path41" />
    <path
       d="m 1342.9121,51.779236 h 58.56 q 23.04,0 34.32,13.92 11.28,13.92 11.28,37.440004 0,40.56 -24.48,51.36 l 24.72,65.28 h -11.04 l -24,-61.92 q -5.28,0.48 -8.64,0.48 h -49.92 v 61.44 h -10.8 z m 10.8,10.32 v 85.680004 h 48.96 q 33.6,0 33.6,-44.64 0,-20.160004 -9.12,-30.480004 -8.88,-10.56 -25.2,-10.56 z"
       id="path43" />
    <path
       d="m 1562.1409,214.25924 q -20.4,7.92 -38.88,7.92 -3.84,0 -11.76,-0.72 -7.68,-0.72 -16.56,-5.28 -8.64,-4.8 -14.16,-14.88 -5.28,-10.32 -5.28,-25.44 V 98.819236 q 0,-18.24 5.04,-27.6 5.28,-9.36 15.84,-15.84 10.8,-6 25.68,-6 18.72,0 34.08,7.92 l -3.36,7.68 q -13.92,-5.76 -27.6,-5.76 -19.2,0 -29.04,9.6 -4.08,3.84 -6.96,11.04 -2.88,7.2 -2.88,16.8 v 78.720004 q 0,25.68 18.96,33.84 7.44,3.12 20.16,3.12 12.96,0 34.32,-7.2 z"
       id="path45" />
    <path
       d="m 1582.4434,51.779236 h 80.16 v 10.08 h -69.36 v 58.800004 h 48.48 l -3.6,10.56 h -44.88 v 78.72 h 68.88 v 9.84 h -79.68 z"
       id="path47" />
  </g>
</svg>
