<?xml version="1.0" encoding="UTF-8" standalone="no"?>
<svg
   xmlns:dc="http://purl.org/dc/elements/1.1/"
   xmlns:cc="http://creativecommons.org/ns#"
   xmlns:rdf="http://www.w3.org/1999/02/22-rdf-syntax-ns#"
   xmlns:svg="http://www.w3.org/2000/svg"
   xmlns="http://www.w3.org/2000/svg"
   xmlns:sodipodi="http://sodipodi.sourceforge.net/DTD/sodipodi-0.dtd"
   xmlns:inkscape="http://www.inkscape.org/namespaces/inkscape"
   height="274.48026"
   width="1682.6034"
   inkscape:version="1.0 (4035a4fb49, 2020-05-01)"
   sodipodi:docname="logo.svg"
   version="1.1"
   viewBox="0 0 1682.6034 274.48026"
   data-name="Layer 1"
   id="Layer_1">
  <metadata
     id="metadata3808">
    <rdf:RDF>
      <cc:Work
         rdf:about="">
        <dc:format>image/svg+xml</dc:format>
        <dc:type
           rdf:resource="http://purl.org/dc/dcmitype/StillImage" />
        <dc:title>Specter Logo Regular</dc:title>
      </cc:Work>
    </rdf:RDF>
  </metadata>
  <sodipodi:namedview
     fit-margin-bottom="20"
     fit-margin-right="20"
     fit-margin-left="20"
     fit-margin-top="20"
     inkscape:document-rotation="0"
     inkscape:current-layer="Layer_1"
     inkscape:window-maximized="1"
     inkscape:window-y="-8"
     inkscape:window-x="1912"
     inkscape:cy="304.12893"
     inkscape:cx="2124.2094"
     inkscape:zoom="0.35355339"
     showgrid="false"
     id="namedview3806"
     inkscape:window-height="1017"
     inkscape:window-width="1920"
     inkscape:pageshadow="2"
     inkscape:pageopacity="0"
     guidetolerance="10"
     gridtolerance="10"
     objecttolerance="10"
     borderopacity="1"
     bordercolor="#666666"
     pagecolor="#ffffff" />
  <defs
     id="defs3775">
    <style
       id="style3773">.cls-1,.cls-4{fill:#fff;}.cls-1,.cls-2,.cls-4,.cls-5{stroke:#231f20;stroke-miterlimit:10;}.cls-1{stroke-width:5px;}.cls-2,.cls-3{fill:#231f20;}.cls-2{stroke-width:3px;}.cls-4,.cls-5{stroke-width:4px;}.cls-5{fill:none;}</style>
  </defs>
  <title
     id="title3777">Specter Logo Regular</title>
  <g
     transform="matrix(2.7263345,0,0,2.7263345,-5.4905175,-12.477219)"
     id="g7825">
    <path
       inkscape:connector-curvature="0"
       class="cls-1"
       d="m 48.888535,79.347564 c 8.08858,0 14.78911,-1.56586 20.00879,-4.69757 5.09982,-3.05862 8.69947,-13.94652 2.60984,-17.22437 -2.62917,-1.41622 -9.98699,-0.5463 -16.27768,0.76553 -6.29068,1.31184 -35.95782,4.58621 -35.04921,7.86406 0.90861,3.27785 17.92478,13.29235 28.70826,13.29235 z"
       id="path3779-7"
       style="display:inline;fill:#dddddd;fill-opacity:1;stroke:#000000;stroke-width:0.695412;stroke-miterlimit:4;stroke-dasharray:none;stroke-opacity:1" />
    <g
       id="g7677"
       style="display:inline;stroke:#000000;stroke-opacity:1"
       transform="translate(-221.10196,-52.335313)">
      <path
         style="fill:#0f0f0f;fill-opacity:1;stroke:#000000;stroke-width:0.933;stroke-miterlimit:4;stroke-dasharray:none;stroke-opacity:1"
         id="path3781-0"
         d="m 232.99369,102.9757 c 0.993,0 1.73871,4.94179 5.69523,6.59163 2.03622,0.84617 6.95483,0 6.95483,0 l -1.00845,8.72831 c 0,0 -2.96353,1.15913 -6.95483,-0.49071 a 11.089082,11.089082 0 0 1 -6.43707,-6.59162 c -0.93118,-2.68147 0.34387,-8.23761 1.75029,-8.23761 z"
         class="cls-2"
         inkscape:connector-curvature="0" />
      <path
         style="fill:#0f0f0f;fill-opacity:1;stroke:#000000;stroke-width:0.933;stroke-miterlimit:4;stroke-dasharray:none;stroke-opacity:1"
         id="path3783-4"
         d="m 279.33214,110.79988 c 9.50493,7.00119 12.91666,10.43224 13.90966,17.38706 0.86935,6.08548 -0.65298,10.43224 -3.26491,10.19656 -1.00072,-0.0927 -0.82685,-3.58561 -2.82056,-6.73074 a 31.057155,31.057155 0 0 0 -12.61529,-11.29 c -6.33662,-3.02921 4.7911,-9.56288 4.7911,-9.56288 z"
         class="cls-2"
         inkscape:connector-curvature="0" />
      <path
         sodipodi:nodetypes="cssssc"
         style="fill:#0f0f0f;fill-opacity:1;stroke:#000000;stroke-width:0.933;stroke-miterlimit:4;stroke-dasharray:none;stroke-opacity:1"
         id="path3785-7"
         d="m 304.79534,109.09941 c 0.86936,4.29267 -9.59461,6.91659 -12.20266,6.91659 -2.60806,0 -9.6363,-0.81526 -12.24436,-2.55397 -2.60806,-1.7387 1.73871,-6.95482 5.21612,-6.95482 3.47741,0 6.06623,0.60543 10.00878,2.43591 4.00839,1.86106 8.87439,-1.54765 9.22212,0.15629 z"
         class="cls-2"
         inkscape:connector-curvature="0" />
      <path
         style="fill:#0f0f0f;fill-opacity:1;stroke:#000000;stroke-width:0.933;stroke-miterlimit:4;stroke-dasharray:none;stroke-opacity:1"
         id="path3787-5"
         d="m 251.28102,114.46662 c -4.41632,0.50229 -13.15621,2.18691 -16.5718,11.52569 -3.4156,9.33878 1.19391,13.75124 2.60806,14.91038 1.08958,0.88867 2.19463,-0.0232 2.87852,-1.89327 0.68389,-1.87007 0.0309,-7.66575 5.79569,-11.90047 5.76477,-4.23472 8.50034,-3.55469 8.50034,-3.55469 z"
         class="cls-3"
         inkscape:connector-curvature="0" />
      <path
         style="fill:#0f0f0f;fill-opacity:1;stroke:#000000;stroke-width:0.933;stroke-miterlimit:4;stroke-dasharray:none;stroke-opacity:1"
         id="path3789-3"
         d="m 246.44741,123.51562 c -2.44191,10.8418 0.67617,18.57325 5.02293,23.63868 3.09104,3.60492 8.35738,3.01762 6.95483,0.1816 -1.73871,-3.51219 -2.46124,-7.69281 -1.73871,-15.68314 0.72253,-7.99032 6.34821,-13.85555 6.34821,-13.85555 l -10.89589,-5.23158 c 0,0 -3.50832,1.2596 -5.69137,10.94999 z"
         class="cls-3"
         inkscape:connector-curvature="0" />
      <path
         style="fill:#0f0f0f;fill-opacity:1;stroke:#000000;stroke-width:0.933;stroke-miterlimit:4;stroke-dasharray:none;stroke-opacity:1"
         id="path3791-7"
         d="m 272.59756,147.31271 c 0,2.12509 2.25259,3.47741 4.13812,1.56484 2.10576,-2.12509 4.70223,-7.48803 2.8167,-18.89781 -1.88553,-11.40977 -12.24049,-19.12577 -12.24049,-19.12577 l -10.36269,7.60781 c 0,0 4.42404,4.69064 10.37042,14.07193 4.40858,6.95483 5.27794,12.87802 5.27794,14.779 z"
         class="cls-3"
         inkscape:connector-curvature="0" />
    </g>
    <path
       inkscape:connector-curvature="0"
       class="cls-1"
       d="m 34.977895,78.459704 c -5.98502,1.40641 -13.90965,0.86935 -18.25642,-2.60807 -1.96667,-1.57256 -4.31972,-3.82901 -2.60806,-7.82418 2.60806,-6.08547 8.69353,-6.08547 8.69353,-12.17094 0,-3.59332 -2.04394,-7.77008 -2.60806,-11.2475 -0.56411,-3.47741 -2.60805,-6.95482 -0.86935,-15.62904 2.07486,-10.37041 10.27382,-15.91882 20.26172,-16.5293 14.5124,-0.85776 21.42086,6.09707 22.33658,13.90965 0.91572,7.81259 0.0464,12.12072 -0.35933,15.57495 -0.51002,4.29267 0.35933,5.21611 1.81985,6.95483 1.25959,1.50301 7.15574,2.60806 8.97558,4.34676 1.81985,1.73871 1.775736,2.3098 1.775736,2.3098 0,0 -3.595976,-1.02193 -5.369466,-0.62396 -2.63896,0.59116 -4.23044,1.9384 -5.96915,3.53028 -3.64742,3.34218 -6.75777,6.49117 -9.56288,9.56288 -5.20453,5.6991 -9.9995,8.49649 -18.26028,10.44384 z"
       id="path3793-1"
       style="display:inline;fill:#ffffff;fill-opacity:1;stroke:#404040;stroke-width:0.933;stroke-linecap:butt;stroke-linejoin:miter;stroke-miterlimit:4;stroke-dasharray:none;stroke-opacity:1;paint-order:normal"
       sodipodi:nodetypes="cccssccscccccccc" />
    <g
       id="g6677"
       style="display:inline;fill:#000000;fill-opacity:1"
       transform="matrix(0.66594544,0,0,0.66594544,-0.77324475,2.7973375)">
      <path
         style="fill:#000000;fill-opacity:1;stroke:#000000;stroke-width:1.1;stroke-miterlimit:4;stroke-dasharray:none;stroke-opacity:1"
         id="path3795-8"
         d="m 41.065517,43.987083 c 0,4.061374 -1.264828,4.931669 -2.831358,4.931669 -1.56653,0 -2.831358,-0.847087 -2.831358,-4.931669 0,-4.084583 2.210548,-7.391702 3.771276,-7.391702 1.560728,0 1.89144,3.312921 1.89144,7.391702 z"
         class="cls-3"
         inkscape:connector-curvature="0" />
      <path
         style="fill:#000000;fill-opacity:1;stroke:#000000;stroke-width:1.1;stroke-miterlimit:4;stroke-dasharray:none;stroke-opacity:1"
         id="path3797-5"
         d="m 63.258028,42.159464 c 0,4.513928 -1.560728,5.453846 -3.481178,5.453846 -1.92045,0 -3.481178,-0.934116 -3.481178,-5.453846 0,-4.51973 2.721121,-8.174967 4.641571,-8.174967 1.92045,0 2.320785,3.661039 2.320785,8.174967 z"
         class="cls-3"
         inkscape:connector-curvature="0" />
    </g>
    <g
       id="g7020"
       transform="translate(-10.141495,-4.3735723)"
       style="display:inline;stroke:#00000f;stroke-width:0.9;stroke-linecap:butt;stroke-linejoin:round;stroke-miterlimit:4;stroke-dasharray:none;stroke-opacity:0.941176;paint-order:normal">
      <path
         style="fill:#ffffff;fill-opacity:0.879397;stroke:#00000f;stroke-width:0.9;stroke-linecap:butt;stroke-linejoin:round;stroke-miterlimit:4;stroke-dasharray:none;stroke-opacity:0.941176;paint-order:normal"
         id="path3799-7"
         d="m 21.816761,39.958789 c 0.07728,-0.965948 1.190048,-2.380095 2.97512,-2.975119 1.785072,-0.595024 6.954825,-0.803669 8.739897,-0.208645 1.785072,0.595024 1.993716,0.803669 2.584876,1.993716 1.097317,2.194634 0.595025,8.113963 0,9.307874 -0.533203,1.062543 -0.946629,1.684613 -3.566279,1.993717 -2.619651,0.309103 -5.181345,0.513884 -6.954825,0.208644 -1.854621,-0.320694 -2.584878,-0.803669 -3.179901,-2.584876 -0.382516,-1.135955 -0.707074,-6.41003 -0.598888,-7.735311 z"
         class="cls-4"
         inkscape:connector-curvature="0" />
      <path
         style="fill:#ffffff;fill-opacity:0.879397;stroke:#00000f;stroke-width:0.9;stroke-linecap:butt;stroke-linejoin:round;stroke-miterlimit:4;stroke-dasharray:none;stroke-opacity:0.941176;paint-order:normal"
         id="path3801-6"
         d="m 60.392856,37.238681 c -0.567978,-1.661431 -1.715524,-2.391688 -3.767197,-2.731701 -2.051673,-0.340014 -8.658758,0.04636 -10.50565,1.00845 -1.846891,0.962084 -2.391686,1.715523 -2.836022,3.118079 -0.59116,1.873939 0.386379,7.476437 1.452785,8.987179 0.772758,1.07027 1.209366,1.089589 2.816704,1.286643 2.901708,0.355468 7.634852,0.405698 10.154045,-0.38638 1.982124,-0.637525 3.044667,-1.043223 3.380817,-3.091033 0.216372,-1.321417 -0.220236,-6.796409 -0.695482,-8.191237 z"
         class="cls-4"
         inkscape:connector-curvature="0" />
      <path
         style="fill:#ffffff;fill-opacity:0;stroke:#00000f;stroke-width:0.9;stroke-linecap:butt;stroke-linejoin:round;stroke-miterlimit:4;stroke-dasharray:none;stroke-opacity:0.941176;paint-order:normal"
         id="path3803-9"
         d="m 43.048295,40.46881 c -1.835299,-2.44578 -6.019786,-1.545517 -6.471849,0"
         class="cls-5"
         inkscape:connector-curvature="0" />
    </g>
  </g>
  <g
     style="font-weight:300;font-size:240px;line-height:1.25;font-family:'Advent Pro';-inkscape-font-specification:'Advent Pro Light';fill:#ffffff"
     id="text27"
     aria-label="OPEN SOURCE">
    <path
       id="path29"
       d="M 342.74961,175.37924 V 98.099236 q 0,-24.72 13.44,-37.44 13.68,-12.72 37.44,-12.72 23.76,0 36.72,13.44 13.2,13.44 13.2,36.96 v 77.040004 q 0,24.24 -14.88,35.76 -14.64,11.28 -35.28,11.28 -20.64,0 -35.76,-11.28 -14.88,-11.52 -14.88,-35.76 z m 10.8,-78.960004 v 78.960004 q 0,18.24 11.28,27.6 11.52,9.12 28.56,9.12 17.04,0 28.32,-8.88 11.28,-9.12 11.28,-28.08 V 96.419236 q 0,-18.48 -10.8,-28.32 -10.56,-9.84 -29.04,-9.84 -18.48,0 -29.04,9.84 -10.56,9.84 -10.56,28.32 z" />
    <path
       id="path31"
       d="m 486.05586,62.099236 v 85.680004 h 48.48 q 9.6,0 16.32,-3.36 6.72,-3.6 10.08,-7.92 3.36,-4.56 5.28,-11.52 2.4,-8.64 2.4,-21.84 0,-19.920004 -8.64,-30.480004 -8.64,-10.56 -24.96,-10.56 z m -10.8,-10.32 h 59.04 q 22.8,0 33.84,13.92 11.28,13.92 11.28,37.440004 0,29.28 -10.8,42.24 -4.56,5.28 -13.44,9.12 -8.64,3.84 -20.64,3.84 h -48.48 v 61.44 h -10.8 z" />
    <path
       id="path33"
       d="m 606.50586,51.779236 h 80.16 v 10.08 h -69.36 v 58.800004 h 48.48 l -3.6,10.56 h -44.88 v 78.72 h 68.88 v 9.84 h -79.68 z" />
    <path
       id="path35"
       d="m 718.06836,51.779236 h 10.8 l 96.72,148.320004 V 51.779236 h 10.56 V 219.77924 h -10.56 l -96.72,-148.560004 V 219.77924 h -10.8 z" />
    <path
       id="path37"
       d="m 930.88461,177.05924 h 11.04 q 0.96,13.44 13.2,24.24 12.24,10.8 32.16,10.8 19.91999,0 32.87999,-8.88 13.2,-8.88 13.2,-28.32 0,-11.28 -7.44,-19.2 -7.2,-8.16 -18,-12.24 -10.79999,-4.08 -23.75999,-8.64 -12.72,-4.8 -23.52,-9.36 -10.8,-4.56 -18.24,-13.44 -7.2,-8.88 -7.2,-21.360004 0,-16.8 13.92,-29.04 13.92,-12.24 40.08,-12.24 19.91999,0 35.03999,7.2 l -3.36,10.32 q -13.68,-6.96 -32.15999,-6.96 -18.24,0 -30.24,8.16 -12,8.16 -12,23.28 0,9.600004 7.2,16.800004 7.44,6.96 18.24,10.8 11.04,3.6 23.76,8.4 12.71999,4.56 23.51999,9.6 11.04,4.8 18.24,14.4 7.44,9.6 7.44,22.8 0,22.08 -14.16,35.28 -13.92,12.96 -41.75999,12.96 -27.6,0 -42.72,-13.68 -14.88,-13.92 -15.36,-31.68 z" />
    <path
       id="path39"
       d="M 1071.6559,175.37924 V 98.099236 q 0,-24.72 13.44,-37.44 13.68,-12.72 37.44,-12.72 23.76,0 36.72,13.44 13.2,13.44 13.2,36.96 v 77.040004 q 0,24.24 -14.88,35.76 -14.64,11.28 -35.28,11.28 -20.64,0 -35.76,-11.28 -14.88,-11.52 -14.88,-35.76 z m 10.8,-78.960004 v 78.960004 q 0,18.24 11.28,27.6 11.52,9.12 28.56,9.12 17.04,0 28.32,-8.88 11.28,-9.12 11.28,-28.08 V 96.419236 q 0,-18.48 -10.8,-28.32 -10.56,-9.84 -29.04,-9.84 -18.48,0 -29.04,9.84 -10.56,9.84 -10.56,28.32 z" />
    <path
       id="path41"
       d="m 1206.0146,51.539236 h 10.8 V 176.57924 q 0,16.8 11.76,25.92 11.76,9.12 28.08,9.12 16.32,0 27.84,-9.12 11.76,-9.12 11.76,-25.92 V 51.539236 h 10.8 V 175.13924 q 0,12.72 -4.56,22.08 -4.32,9.36 -12,14.4 -7.44,5.04 -15.84,7.44 -8.4,2.4 -18,2.4 -9.6,0 -18.24,-2.4 -8.4,-2.4 -16.08,-7.44 -7.44,-5.04 -12,-14.4 -4.32,-9.36 -4.32,-22.08 z" />
    <path
       id="path43"
       d="m 1342.9121,51.779236 h 58.56 q 23.04,0 34.32,13.92 11.28,13.92 11.28,37.440004 0,40.56 -24.48,51.36 l 24.72,65.28 h -11.04 l -24,-61.92 q -5.28,0.48 -8.64,0.48 h -49.92 v 61.44 h -10.8 z m 10.8,10.32 v 85.680004 h 48.96 q 33.6,0 33.6,-44.64 0,-20.160004 -9.12,-30.480004 -8.88,-10.56 -25.2,-10.56 z" />
    <path
       id="path45"
       d="m 1562.1409,214.25924 q -20.4,7.92 -38.88,7.92 -3.84,0 -11.76,-0.72 -7.68,-0.72 -16.56,-5.28 -8.64,-4.8 -14.16,-14.88 -5.28,-10.32 -5.28,-25.44 V 98.819236 q 0,-18.24 5.04,-27.6 5.28,-9.36 15.84,-15.84 10.8,-6 25.68,-6 18.72,0 34.08,7.92 l -3.36,7.68 q -13.92,-5.76 -27.6,-5.76 -19.2,0 -29.04,9.6 -4.08,3.84 -6.96,11.04 -2.88,7.2 -2.88,16.8 v 78.720004 q 0,25.68 18.96,33.84 7.44,3.12 20.16,3.12 12.96,0 34.32,-7.2 z" />
    <path
       id="path47"
       d="m 1582.4434,51.779236 h 80.16 v 10.08 h -69.36 v 58.800004 h 48.48 l -3.6,10.56 h -44.88 v 78.72 h 68.88 v 9.84 h -79.68 z" />
  </g>
</svg>
