<?xml version="1.0" encoding="utf-8"?>
<!-- Generator: Adobe Illustrator 25.4.8, SVG Export Plug-In . SVG Version: 6.00 Build 0)  -->
<svg version="1.1" xmlns="http://www.w3.org/2000/svg" xmlns:xlink="http://www.w3.org/1999/xlink" x="0px" y="0px"
	 viewBox="0 0 680 680" enable-background="new 0 0 680 680" xml:space="preserve">
<g id="Info">
</g>
<g id="Logo-02">
</g>
<g id="Logo-01">
</g>
<g id="HQ">
	<g>
		<g>
			<g>
				<path fill="#2D1D5E" d="M78.985,511.766v-14.738c14.037,2.148,23.614,3.22,28.733,3.22c10.733,0,16.102-2.765,16.102-8.298
					v-5.201c0-2.642-0.765-4.664-2.292-6.069c-1.527-1.403-4.272-2.105-8.235-2.105h-9.413c-17.671,0-26.505-7.017-26.505-21.055
					v-5.946c0-7.016,2.93-12.177,8.795-15.481c5.86-3.301,15.149-4.953,27.866-4.953c6.605,0,14.985,0.538,25.141,1.609v14.367
					c-12.468-1.486-21.053-2.229-25.759-2.229c-6.525,0-10.899,0.538-13.13,1.61c-2.395,1.157-3.59,2.972-3.59,5.45v5.696
					c0,4.212,3.548,6.317,10.65,6.317h9.66c9.166,0,15.811,1.694,19.941,5.078c4.127,3.386,6.192,8.546,6.192,15.481v5.326
					c0,9.579-3.426,16.06-10.278,19.445c-3.304,1.734-6.957,2.953-10.963,3.653c-4.005,0.7-8.815,1.053-14.428,1.053
					C99.794,513.996,90.297,513.251,78.985,511.766z"/>
				<path fill="#2D1D5E" d="M156.515,432.376h32.201c7.844,0,14.056,0.538,18.641,1.61c4.582,1.074,7.925,2.953,10.032,5.635
					c2.104,2.684,3.157,6.421,3.157,11.208v15.234c0,5.285-1.136,9.413-3.407,12.385c-2.27,2.973-5.863,5.078-10.774,6.317
					c-4.914,1.239-11.539,1.857-19.877,1.857h-10.652v26.133h-19.32V432.376z M188.098,473.371c5.034,0,8.585-0.598,10.65-1.795
					c2.063-1.196,3.096-3.24,3.096-6.131v-12.881c0-2.642-0.99-4.375-2.972-5.201c-1.901-0.825-5.574-1.239-11.024-1.239h-12.013
					v27.248H188.098z"/>
				<path fill="#2D1D5E" d="M234.172,432.376h61.306v13.747h-41.986v18.455h37.9v13.747h-37.9v20.684h43.225v13.747h-62.545V432.376
					z"/>
				<path fill="#2D1D5E" d="M335.543,513.499c-2.849-0.331-5.968-0.948-9.352-1.857c-3.798-0.991-6.935-2.291-9.411-3.901
					c-2.478-1.61-4.543-3.859-6.195-6.751c-1.733-2.888-2.6-6.316-2.6-10.28v-35.297c0-16.182,12.426-24.275,37.279-24.275
					c6.359,0,14.863,0.909,25.515,2.725v14.49c-9.579-2.311-18-3.468-25.266-3.468c-3.057,0-5.43,0.083-7.121,0.248
					c-1.694,0.166-3.451,0.578-5.264,1.238c-3.883,1.322-5.821,4.253-5.821,8.794v34.183c0,7.266,6.645,10.899,19.938,10.899
					c5.699,0,13.707-1.195,24.029-3.591v14.615c-8.837,1.814-17.507,2.725-26.011,2.725
					C341.63,513.996,338.392,513.828,335.543,513.499z"/>
				<path fill="#2D1D5E" d="M402.234,446.123h-24.77v-13.747h68.737v13.747h-24.647v66.633h-19.32V446.123z"/>
				<path fill="#2D1D5E" d="M457.348,432.376h36.165c10.733,0,18.494,1.3,23.284,3.901c4.787,2.601,7.182,6.957,7.182,13.067v14.119
					c0,4.707-1.672,8.403-5.015,11.085c-3.345,2.684-7.783,4.397-13.313,5.14l23.284,33.069H506.64l-21.055-31.583h-8.917v31.583
					h-19.32V432.376z M493.263,468.418c4.54,0,7.637-0.598,9.291-1.796c1.65-1.196,2.475-3.53,2.475-6.998v-5.698
					c0-2.972-0.887-5.016-2.661-6.13c-1.777-1.114-4.812-1.673-9.105-1.673h-16.595v22.294H493.263z"/>
				<path fill="#2D1D5E" d="M540.08,432.376h61.306v13.747H559.4v18.455h37.9v13.747h-37.9v20.684h43.225v13.747H540.08V432.376z"/>
			</g>
			<g>
				<path fill="#2D1D5E" d="M141.594,561.241v-4.515c4.305,0.657,7.238,0.986,8.805,0.986c3.29,0,4.938-0.848,4.938-2.543v-1.593
					c0-0.81-0.236-1.431-0.705-1.86c-0.469-0.431-1.307-0.645-2.521-0.645h-2.886c-5.415,0-8.124-2.15-8.124-6.453v-1.822
					c0-2.15,0.898-3.731,2.697-4.745c1.796-1.01,4.641-1.517,8.537-1.517c2.024,0,4.593,0.164,7.707,0.493v4.403
					c-3.824-0.455-6.453-0.683-7.896-0.683c-2,0-3.339,0.164-4.024,0.493c-0.733,0.355-1.098,0.912-1.098,1.671v1.745
					c0,1.291,1.086,1.936,3.262,1.936h2.962c2.806,0,4.846,0.519,6.108,1.555c1.267,1.038,1.9,2.619,1.9,4.745v1.631
					c0,2.936-1.05,4.922-3.15,5.96c-1.014,0.531-2.132,0.904-3.359,1.118c-1.23,0.216-2.701,0.323-4.421,0.323
					C147.971,561.924,145.061,561.698,141.594,561.241z"/>
				<path fill="#2D1D5E" d="M209.873,551.678l-8.918-14.765h6.717l5.198,9.641l5.162-9.641h6.757l-8.998,14.689v9.944h-5.92V551.678
					z"/>
				<path fill="#2D1D5E" d="M264.942,561.241v-4.515c4.304,0.657,7.238,0.986,8.805,0.986c3.29,0,4.938-0.848,4.938-2.543v-1.593
					c0-0.81-0.236-1.431-0.705-1.86c-0.469-0.431-1.307-0.645-2.521-0.645h-2.886c-5.415,0-8.124-2.15-8.124-6.453v-1.822
					c0-2.15,0.898-3.731,2.697-4.745c1.796-1.01,4.641-1.517,8.537-1.517c2.024,0,4.593,0.164,7.707,0.493v4.403
					c-3.824-0.455-6.453-0.683-7.896-0.683c-2,0-3.339,0.164-4.024,0.493c-0.733,0.355-1.098,0.912-1.098,1.671v1.745
					c0,1.291,1.086,1.936,3.262,1.936h2.962c2.806,0,4.846,0.519,6.108,1.555c1.267,1.038,1.9,2.619,1.9,4.745v1.631
					c0,2.936-1.05,4.922-3.15,5.96c-1.014,0.531-2.132,0.904-3.359,1.118c-1.23,0.216-2.701,0.323-4.421,0.323
					C271.318,561.924,268.409,561.698,264.942,561.241z"/>
				<path fill="#2D1D5E" d="M332.351,541.127h-7.591v-4.214h21.066v4.214h-7.551v20.418h-5.924V541.127z"/>
				<path fill="#2D1D5E" d="M387.195,536.913h18.785v4.214h-12.865v5.655h11.615v4.212h-11.615v6.339h13.246v4.212h-19.166V536.913z
					"/>
				<path fill="#2D1D5E" d="M448.3,536.913h8.425l6.072,17.611l6-17.611h7.932v24.633h-5.351v-18.218h-0.116l-6.224,18.218h-4.745
					l-6.413-18.218h-0.152v18.218H448.3V536.913z"/>
				<path fill="#2D1D5E" d="M519.236,561.241v-4.515c4.305,0.657,7.238,0.986,8.805,0.986c3.291,0,4.938-0.848,4.938-2.543v-1.593
					c0-0.81-0.236-1.431-0.705-1.86c-0.469-0.431-1.307-0.645-2.521-0.645h-2.886c-5.415,0-8.124-2.15-8.124-6.453v-1.822
					c0-2.15,0.898-3.731,2.697-4.745c1.796-1.01,4.641-1.517,8.537-1.517c2.024,0,4.593,0.164,7.707,0.493v4.403
					c-3.824-0.455-6.453-0.683-7.896-0.683c-2,0-3.339,0.164-4.024,0.493c-0.733,0.355-1.098,0.912-1.098,1.671v1.745
					c0,1.291,1.086,1.936,3.262,1.936h2.962c2.806,0,4.846,0.519,6.108,1.555c1.266,1.038,1.9,2.619,1.9,4.745v1.631
					c0,2.936-1.05,4.922-3.15,5.96c-1.014,0.531-2.132,0.904-3.359,1.118c-1.23,0.216-2.701,0.323-4.421,0.323
					C525.612,561.924,522.703,561.698,519.236,561.241z"/>
			</g>
			<g>
				<path fill="#FFFFFF" d="M469.845,306.029c1.342-8.326-5.591-19.246-18.542-29.208c-21.858-16.814-35.578-30.472-44.486-44.286
					c-9.092-14.095-13.341-28.523-13.773-46.776l-0.003-0.116c0-31.908-25.96-57.868-57.871-57.868
					c-31.908,0-57.868,25.96-57.868,57.868v7.622c0.297,2.381,1.677,15.4-1.386,33.075c-1.946,11.236-5.3,22.065-9.965,32.18
					c-5.838,12.659-13.754,24.227-23.526,34.377c-6.305,6.552-11.092,14.906-13.132,22.919c-1.865,7.34-1.292,13.695,1.571,17.437
					c2.256,2.947,6.033,4.337,11.23,4.133c6.987-0.272,15.863-3.342,26.386-9.117c16.173-8.877,28.667-13.714,38.551-14.775
					c-2.475-1.198-5.075-2.206-7.753-3.026c-6.658-2.046-13.742-3.066-20.87-3.407c-3.57-0.166-7.159-0.163-10.751,0
					c-3.589,0.172-7.184,0.466-10.754,1.011c3.492-0.942,7.049-1.639,10.632-2.215c3.586-0.569,7.206-0.979,10.848-1.22
					c7.284-0.463,14.69-0.26,22.055,1.123c3.676,0.701,7.34,1.699,10.901,3.126c3.567,1.405,7.015,3.273,10.212,5.591
					c0.983,0.726,1.934,1.499,2.86,2.309c5.216,3.248,9.011,8.726,11.542,16.639c1.198,3.748,4.262,7.284,8.623,9.956
					c4.615,2.829,10.162,4.343,15.641,4.293c5.948-0.066,11.517-2.012,16.111-5.629c5.541-4.368,9.674-11.051,12.281-19.868
					c3.339-11.283,11.098-19.149,21.849-22.146c11.949-3.332,25.973-0.106,34.896,8.029c5.954,5.428,12.725,7.547,18.116,5.666
					C466.976,312.503,469.241,309.768,469.845,306.029z M386.625,201.189c-3.478,28.929,24.039,47.338,24.039,47.338
					s-14.13-0.596-26.336-16.673c-12.207-16.077,7.06-56.567-12.207-75.622C371.486,155.605,391.384,161.592,386.625,201.189z
					 M301.362,312.636c-20.245,3.97-39.573,17.184-53.392,21.039c-3.777,1.053-14.489,2.274-15.184-6.261
					C232.092,318.88,254.851,304.499,301.362,312.636z M290.554,186.6c-0.71,22.89-2.259,43.641-7.849,62.522
					c-6.916,23.357-25.948,43.149-43.071,52.201c0,0,20.024-16.013,34.933-51.804c10.794-25.913,6.517-43.109,7.145-64.904
					c0.653-22.64,15.433-50.923,53.193-49.621C334.905,134.995,292.142,135.392,290.554,186.6z M346.219,276.81
					c0,0-16.963,36.025-32.743,22.329c38.102-25.902,26.193-79.194,26.193-79.194C352.173,241.084,346.219,276.81,346.219,276.81z
					 M393.809,301.127c-16.952,22.046-30.638,19.449-30.638,19.449s13.686-5.021,20.251-19.449
					c6.565-14.427,35.258-27.801,63.707-2.026C447.129,299.101,410.761,279.081,393.809,301.127z"/>
				<path fill="#E0E0E2" d="M281.712,184.616c-0.629,21.794,3.649,38.991-7.145,64.904c-14.909,35.791-34.933,51.804-34.933,51.804
					c17.123-9.052,36.155-28.843,43.071-52.201c5.59-18.881,7.14-39.632,7.849-62.522c1.588-51.208,44.351-51.605,44.351-51.605
					C297.145,133.693,282.365,161.976,281.712,184.616z"/>
				<path fill="#E0E0E2" d="M232.786,327.415c0.695,8.535,11.407,7.314,15.184,6.261c13.819-3.855,33.147-17.069,53.392-21.039
					C254.851,304.499,232.092,318.88,232.786,327.415z"/>
				<path fill="#E0E0E2" d="M383.422,301.127c-6.565,14.427-20.251,19.449-20.251,19.449s13.686,2.597,30.638-19.449
					c16.952-22.046,53.32-2.026,53.32-2.026C418.68,273.326,389.988,286.7,383.422,301.127z"/>
				<path fill="#E0E0E2" d="M313.476,299.14c15.779,13.695,32.743-22.329,32.743-22.329s5.954-35.727-6.55-56.865
					C339.669,219.945,351.578,273.238,313.476,299.14z"/>
				<path fill="#E0E0E2" d="M384.327,231.854c12.207,16.077,26.336,16.673,26.336,16.673s-27.517-18.409-24.039-47.338
					c4.76-39.597-15.139-45.584-14.504-44.956C391.388,175.287,372.121,215.777,384.327,231.854z"/>
				<path fill="#FFFFFF" d="M177.261,352.73c-2.22,0-4.019,2.199-4.019,4.912c0,2.713,1.8,4.912,4.019,4.912
					c2.22,0,4.019-2.199,4.019-4.912C181.28,354.929,179.481,352.73,177.261,352.73z"/>
				<path fill="#FFFFFF" d="M200.186,360.173c-2.22,0-4.019,2.199-4.019,4.912c0,2.713,1.799,4.912,4.019,4.912
					c2.22,0,4.019-2.199,4.019-4.912C204.205,362.372,202.405,360.173,200.186,360.173z"/>
				<ellipse fill="#FFFFFF" cx="224.194" cy="360.173" rx="4.019" ry="4.912"/>
				<path fill="#FFFFFF" d="M279.827,347.817c-2.22,0-4.019,2.199-4.019,4.913c0,2.713,1.8,4.912,4.019,4.912
					s4.019-2.199,4.019-4.912C283.846,350.017,282.046,347.817,279.827,347.817z"/>
				<path fill="#FFFFFF" d="M287.865,362.555c-2.22,0-4.019,2.199-4.019,4.913c0,2.713,1.8,4.912,4.019,4.912
					c2.22,0,4.019-2.199,4.019-4.912C291.884,364.754,290.085,362.555,287.865,362.555z"/>
				<path fill="#FFFFFF" d="M299.569,375.16c-2.22,0-4.019,2.199-4.019,4.912c0,2.713,1.799,4.913,4.019,4.913
					c2.22,0,4.019-2.199,4.019-4.913C303.588,377.36,301.789,375.16,299.569,375.16z"/>
				<path fill="#FFFFFF" d="M401.131,338.095c0,2.713,1.8,4.913,4.019,4.913c2.22,0,4.019-2.199,4.019-4.913
					c0-2.713-1.8-4.912-4.019-4.912C402.93,333.183,401.131,335.382,401.131,338.095z"/>
				<path fill="#FFFFFF" d="M428.093,320.67c-2.22,0-4.019,2.199-4.019,4.912c0,2.713,1.8,4.912,4.019,4.912
					c2.22,0,4.019-2.199,4.019-4.912C432.112,322.87,430.312,320.67,428.093,320.67z"/>
				<path fill="#FFFFFF" d="M465.99,345.258c-2.22,0-4.019,2.199-4.019,4.912c0,2.713,1.799,4.913,4.019,4.913
					c2.22,0,4.019-2.199,4.019-4.913C470.009,347.457,468.209,345.258,465.99,345.258z"/>
				<path fill="#FFFFFF" d="M444.509,334.141c-2.22,0-4.019,2.199-4.019,4.912c0,2.713,1.799,4.913,4.019,4.913
					c2.22,0,4.019-2.199,4.019-4.913C448.529,336.34,446.729,334.141,444.509,334.141z"/>
				<path fill="#FFFFFF" d="M479.701,273.209c2.22,0,4.019-2.199,4.019-4.912c0-2.713-1.799-4.913-4.019-4.913
					s-4.019,2.199-4.019,4.913C475.682,271.01,477.481,273.209,479.701,273.209z"/>
				<path fill="#FFFFFF" d="M501.137,248.527c-2.22,0-4.019,2.199-4.019,4.912c0,2.713,1.799,4.913,4.019,4.913
					c2.22,0,4.019-2.199,4.019-4.913C505.156,250.726,503.357,248.527,501.137,248.527z"/>
				<path fill="#FFFFFF" d="M505.156,229.425c2.22,0,4.019-2.199,4.019-4.912c0-2.713-1.8-4.912-4.019-4.912
					c-2.22,0-4.019,2.199-4.019,4.912C501.137,227.226,502.937,229.425,505.156,229.425z"/>
				<path fill="#FFFFFF" d="M405.15,355.52c-2.22,0-4.019,2.199-4.019,4.912c0,2.713,1.8,4.913,4.019,4.913
					c2.22,0,4.019-2.199,4.019-4.913C409.169,357.719,407.37,355.52,405.15,355.52z"/>
				<path fill="#FFFFFF" d="M397.112,374.149c-2.22,0-4.019,2.199-4.019,4.913c0,2.713,1.8,4.912,4.019,4.912
					c2.22,0,4.019-2.199,4.019-4.912C401.131,376.348,399.332,374.149,397.112,374.149z"/>
				<path fill="#FFFFFF" d="M201.322,246.171c-2.22,0-4.019,2.199-4.019,4.913c0,2.713,1.799,4.912,4.019,4.912
					c2.22,0,4.019-2.199,4.019-4.912C205.341,248.371,203.542,246.171,201.322,246.171z"/>
				<path fill="#FFFFFF" d="M208.765,263.426c-2.22,0-4.019,2.199-4.019,4.912c0,2.713,1.799,4.913,4.019,4.913
					c2.22,0,4.019-2.199,4.019-4.913C212.784,265.625,210.985,263.426,208.765,263.426z"/>
				<ellipse fill="#FFFFFF" cx="224.194" cy="278.163" rx="4.019" ry="4.912"/>
			</g>
			<path fill="#2D1D5E" d="M522.52,301.323c-7.191-33.004-38.37-20.011-35.425,1.661c0.874-11.526,13.152-14.663,16.233-0.915
				c1.828,8.157,0.709,18.741-11.948,25.607c-9.05,4.147-21.739,0.575-30.514-3.686c1.98-0.127,3.929-0.454,5.797-1.106
				c6.824-2.381,11.596-8.107,12.756-15.31c0.926-5.735-0.441-12.124-3.952-18.482c-1.738-3.146-4.001-6.266-6.727-9.345
				c47.496-7.708,50.884-41.85,39.44-63.375c-1.748-3.288-3.606-6.048-5.52-8.382l0.055-0.043c0,0-17.601-22.579-46.004-16.072
				c-32.925,7.543-17.182,46.887,3.455,39.643c-11.466,1.463-17.056-18.269-2.967-18.24c7.634,0.016,11.85,3.84,14.584,7.668
				c0.679,1.111,1.471,2.299,2.244,3.566c3.579,5.87,6.717,13.48-4.017,23.419c-15.547,14.396-38.635-1.423-40.145-2.485
				c-6.167-6.272-11.069-12.235-14.896-18.167c-8.06-12.497-11.83-25.356-12.228-41.692c-0.017-19.922-8.596-38.521-23.993-51.594
				c-10.572-8.977-23.769-14.478-37.587-15.661c-20.027-1.714-39.168,5.209-53.29,19.06c-13.205,12.951-20.268,30.922-20.268,49.418
				v6.774v0.347l0.047,0.338c0.019,0.128,1.777,13.029-1.352,30.772c-1.827,10.356-4.94,20.325-9.252,29.627
				c-1.335,2.879-2.788,5.695-4.354,8.447c-14.081,2.469-31.243-5.218-28.835-19.92c0.055-0.189,0.096-0.394,0.102-0.635
				c0.276-1.383,0.412-2.867,0.426-4.394c1.003-6.259,4.05-14.502,11.936-15.694c19.49-2.946,16.079,19.596,4.522,19.847
				c14.069,4.773,30.901-31.404-2.764-34.167c-26.829-2.202-38.271,13.516-41.815,19.995c-0.359,0.624-0.695,1.291-1.004,2.004
				c-0.2,0.449-0.298,0.708-0.298,0.708l0.012,0.007c-6.122,15.565-0.386,49.328,35.672,60.92
				c-11.569,15.092-15.413,33.603-9.036,44.988c-5.419,4.625-24.849,6.753-33.777-0.495c-8.181-6.641-6.207-22.348-4.711-26.055
				c5.276-13.064,16.835-3.551,11.163,6.521c14.48-16.392-11.427-42.693-30.808-15.029c-16.72,23.865-2.427,48.67-2.427,48.67
				l0.233-0.132c9.192,16.079,34.431,33.289,68.77,17.875c9.055-4.065,15.831-12.233,20.141-22.147
				c6.501-1.436,14.319-4.389,23.821-9.692c0.013,0.009,0.006,0.005,0.019,0.014c-1.584,7.088-1.308,14.138,0.814,20.736
				c14.133,43.944,45.059,41.909,56.092,30.746c0.002-0.002,0.004-0.003,0.006-0.004c6.225-5.273,8.001-17.997,0.37-26.193
				c-2.307,16.515-15.268,12.524-15.803,12.352c-8.768-5.917-12.986-24.984-12.135-36.287c0.74-9.832,6.263-13.296,9.845-14.521
				c1.504,0.156,2.912,0.424,4.135,0.912c4.23,1.687,7.206,5.607,9.355,12.334c0.006,0.016,0.012,0.031,0.019,0.05
				c0.003,0.009,0.006,0.016,0.009,0.028c3.886,11.984,18.075,20.913,33.16,20.913c0.141,0,0.282,0,0.422,0
				c6.646-0.074,12.941-1.905,18.463-5.28c1.916,8.235,11.483,45.866-23.338,43.118c-2.159-0.17-4.192-1.319-5.246-3.211
				c-0.678-1.217-1-2.746-0.2-4.47c2.01-4.334,7.034-0.063,6.783,2.073c1.445-1.947-3.266-8.228-9.233-6.909
				c-5.967,1.319-9.484,19.596,14.69,23.45c0.034,0.005,0.063,0.009,0.097,0.014c5.263,1.576,11.191,1.461,18.228-0.833
				c2.274-0.662,4.637-1.712,7.01-3.198c0,0,0,0,0,0c4.866-3.047,9.77-7.924,14.019-15.062c15.654-26.299,7.195-59.989,2.921-73.059
				c1.819-1.634,3.754-2.763,5.628-3.572c8.899,20.637,28.277,40.588,46.36,44.92c19.115,4.579,34.137,0.875,44.993-6.201
				l0.127,0.251c0,0,1.538-1.073,3.788-3.08c8.776-7.028,14.199-16.264,16.215-24.186C523.519,316.022,524.2,309.036,522.52,301.323
				z M505.156,219.6c2.22,0,4.019,2.199,4.019,4.912c0,2.713-1.8,4.912-4.019,4.912c-2.22,0-4.019-2.199-4.019-4.912
				C501.137,221.799,502.937,219.6,505.156,219.6z M501.137,248.527c2.22,0,4.019,2.199,4.019,4.912c0,2.713-1.8,4.913-4.019,4.913
				c-2.22,0-4.019-2.199-4.019-4.913C497.118,250.726,498.917,248.527,501.137,248.527z M479.701,263.384
				c2.22,0,4.019,2.199,4.019,4.913c0,2.713-1.799,4.912-4.019,4.912s-4.019-2.199-4.019-4.912
				C475.682,265.584,477.481,263.384,479.701,263.384z M201.322,255.996c-2.22,0-4.019-2.199-4.019-4.912
				c0-2.713,1.799-4.913,4.019-4.913c2.22,0,4.019,2.199,4.019,4.913C205.341,253.796,203.542,255.996,201.322,255.996z
				 M208.765,273.251c-2.22,0-4.019-2.199-4.019-4.913c0-2.713,1.799-4.912,4.019-4.912c2.22,0,4.019,2.199,4.019,4.912
				C212.784,271.051,210.985,273.251,208.765,273.251z M224.194,283.076c-2.22,0-4.019-2.199-4.019-4.912
				c0-2.713,1.799-4.912,4.019-4.912c2.22,0,4.019,2.199,4.019,4.912C228.213,280.876,226.414,283.076,224.194,283.076z
				 M177.261,362.555c-2.22,0-4.019-2.199-4.019-4.912c0-2.713,1.8-4.912,4.019-4.912c2.22,0,4.019,2.199,4.019,4.912
				C181.28,360.355,179.481,362.555,177.261,362.555z M200.186,369.998c-2.22,0-4.019-2.199-4.019-4.912
				c0-2.713,1.799-4.912,4.019-4.912c2.22,0,4.019,2.199,4.019,4.912C204.205,367.798,202.405,369.998,200.186,369.998z
				 M224.194,365.085c-2.22,0-4.019-2.199-4.019-4.912c0-2.713,1.799-4.912,4.019-4.912c2.22,0,4.019,2.199,4.019,4.912
				C228.213,362.886,226.414,365.085,224.194,365.085z M279.827,357.642c-2.22,0-4.019-2.199-4.019-4.912
				c0-2.713,1.8-4.913,4.019-4.913s4.019,2.199,4.019,4.913C283.846,355.443,282.046,357.642,279.827,357.642z M287.865,372.38
				c-2.22,0-4.019-2.199-4.019-4.912c0-2.713,1.8-4.913,4.019-4.913c2.22,0,4.019,2.199,4.019,4.913
				C291.884,370.18,290.085,372.38,287.865,372.38z M303.588,380.073c0,2.713-1.799,4.913-4.019,4.913
				c-2.22,0-4.019-2.199-4.019-4.913c0-2.713,1.799-4.912,4.019-4.912C301.789,375.16,303.588,377.36,303.588,380.073z
				 M397.112,383.974c-2.22,0-4.019-2.199-4.019-4.912c0-2.713,1.8-4.913,4.019-4.913c2.22,0,4.019,2.199,4.019,4.913
				C401.131,381.775,399.332,383.974,397.112,383.974z M405.15,365.345c-2.22,0-4.019-2.199-4.019-4.913
				c0-2.713,1.8-4.912,4.019-4.912c2.22,0,4.019,2.199,4.019,4.912C409.169,363.145,407.37,365.345,405.15,365.345z M405.15,333.183
				c2.22,0,4.019,2.199,4.019,4.912c0,2.713-1.8,4.913-4.019,4.913c-2.22,0-4.019-2.199-4.019-4.913
				C401.131,335.382,402.93,333.183,405.15,333.183z M428.093,330.495c-2.22,0-4.019-2.199-4.019-4.912
				c0-2.713,1.8-4.912,4.019-4.912c2.22,0,4.019,2.199,4.019,4.912C432.112,328.296,430.312,330.495,428.093,330.495z
				 M444.509,343.966c-2.22,0-4.019-2.199-4.019-4.913c0-2.713,1.799-4.912,4.019-4.912c2.22,0,4.019,2.199,4.019,4.912
				C448.529,341.767,446.729,343.966,444.509,343.966z M445.352,308.06c-8.924-8.135-22.947-11.361-34.896-8.029
				c-10.751,2.998-18.51,10.864-21.849,22.146c-2.606,8.817-6.74,15.5-12.281,19.868c-4.593,3.617-10.163,5.563-16.111,5.629
				c-5.479,0.05-11.026-1.464-15.641-4.293c-4.362-2.672-7.425-6.208-8.623-9.956c-2.531-7.913-6.327-13.392-11.542-16.639
				c-0.926-0.81-1.877-1.583-2.86-2.309c-3.198-2.319-6.646-4.186-10.212-5.591c-3.561-1.427-7.225-2.425-10.901-3.126
				c-7.365-1.383-14.771-1.586-22.055-1.123c-3.642,0.241-7.262,0.651-10.848,1.22c-3.583,0.576-7.14,1.273-10.632,2.215
				c3.57-0.544,7.165-0.838,10.754-1.011c3.592-0.163,7.181-0.166,10.751,0c7.128,0.341,14.211,1.361,20.87,3.407
				c2.678,0.82,5.278,1.827,7.753,3.026c-9.884,1.061-22.378,5.898-38.551,14.775c-10.522,5.776-19.399,8.845-26.386,9.117
				c-5.197,0.204-8.974-1.186-11.23-4.133c-2.863-3.742-3.435-10.097-1.571-17.437c2.04-8.013,6.827-16.367,13.132-22.919
				c9.771-10.15,17.687-21.717,23.526-34.377c4.665-10.116,8.019-20.945,9.965-32.18c3.063-17.675,1.683-30.694,1.386-33.075v-7.622
				c0-31.908,25.96-57.868,57.868-57.868c31.911,0,57.871,25.96,57.871,57.868l0.003,0.116c0.432,18.254,4.681,32.681,13.773,46.776
				c8.908,13.814,22.628,27.471,44.486,44.286c12.95,9.962,19.884,20.882,18.542,29.208c-0.604,3.739-2.869,6.474-6.376,7.697
				C458.077,315.607,451.307,313.489,445.352,308.06z M465.99,355.083c-2.22,0-4.019-2.199-4.019-4.913
				c0-2.713,1.799-4.912,4.019-4.912c2.22,0,4.019,2.199,4.019,4.912C470.009,352.884,468.209,355.083,465.99,355.083z"/>
		</g>
		<path fill="#2D1D5E" d="M348.705,162.983c-2.988,0-5.412,4.77-5.412,10.655c0,5.885,2.424,10.657,5.412,10.657
			c2.99,0,5.412-4.772,5.412-10.657C354.117,167.753,351.695,162.983,348.705,162.983z"/>
		<path fill="#2D1D5E" d="M321.268,173.637c0,5.885,2.422,10.657,5.412,10.657c2.988,0,5.412-4.772,5.412-10.657
			c0-5.885-2.424-10.655-5.412-10.655C323.689,162.983,321.268,167.753,321.268,173.637z"/>
	</g>
</g>
</svg>
